<svg xmlns="http://www.w3.org/2000/svg" fill="none" viewBox="0 0 18 56">
  <defs/>
  <path fill="#DC669E" d="M15 53v1h-3v-1h3zm-9 0H5v1h3v-1H6z"/>
  <path fill="#1A3558" d="M14 51v-5h-1v-1h1v-8H6v8h1v1H6v5H5v2h3V40h1v-1h2v1h1v13h3v-2h-1z"/>
  <path fill="#08203D" d="M13 45h1v1h-1v-1zm-7 1h1v-1H6v1zm7-10H6v1h8v-1h-1z"/>
  <path fill="#CF86A9" d="M16 33v1h-1v-1h1zM4 34h1v-1H4v1zm8-11v2h1v-3h-1v1zm-3-1v1h2v-1H9zm-2 1v2h1v-3H7v1zm4-2v1h1v-1h-1zm-3 0v1h1v-1H8z"/>
  <path fill="#F5BED8" d="M16 22v11h-1v-9h-1v12H6V24H5v9H4V22h2v-1h1v4h1v-3h1v1h2v-1h1v3h1v-4h1v1h2z"/>
  <path fill="#934C6E" d="M15 25v1h-1v-1h1zM5 26h1v-1H5v1zm7-5h1v-1h-1v1zm-5 0h1v-1H7v1z"/>
  <path fill="#B76C90" d="M14 24h1v1h-1v-1zm-9 1h1v-1H5v1zm7-3h1v-1h-1v1zm-5 0h1v-1H7v1zm7-2h-1v1h2v-1h-1zm-8 0H5v1h2v-1H6z"/>
  <path fill="#DE8E78" d="M11 16v1H9v-1h2z"/>
  <path fill="#937F67" d="M15 12v1h-1v-1h1zM5 13h1v-1H5v1z"/>
  <path fill="#D9D9D9" d="M11 15h1v1h-1v-1zm-3 1h1v-1H8v1zm6-6v2h1v-2h-1zm-9 1v1h1v-2H5v1z"/>
  <path fill="#9B8974" d="M14 12v1h-2v-1h2zm-8 0v1h2v-1H6zm6-2V9h-1v1H9V9H8v3h1v-1h2v1h1v-2z"/>
  <path fill="#907D65" d="M15 9v1h-3V9h3zM6 9H5v1h3V9H6z"/>
  <path fill="#867662" d="M16 9v2h-1V9h1zM4 10v1h1V9H4v1z"/>
  <path fill="#CEA671" d="M10 18h1v1H9v-1h1zm2 0h1v-1h-1v1zm-4 0v-1H7v1h1zm5-1h1v-1h-1v1zm-7 0h1v-1H6v1zm8-2v1h1v-1h-1zm-2 0v1h1v-1h-1zm-5 1h1v-1H7v1zm-2-1v1h1v-1H5zm4-2v1h2v-1H9zM6 8H5v1h1V8z"/>
  <path fill="#FCE3C1" d="M11 20h1v1h-1v1H9v-1H8v-1h3zm-3-6H7v-1H6v2h2v-1zm5-1v1h-1v1h2v-2h-1zm-4 4v1h2v-1H9zm2-5H9v1h2v-1zM8 9h4V8h-2V7H7v1H6v1h2z"/>
  <path fill="#E8C79C" d="M11 19h1v1h-1v-1zm-3 1h1v-1H8v1zm6-7v2h1v-2h-1zm-9 1v1h1v-2H5v1zm9-6h-2v1h2V8zm-3-1h-1v1h1V7zM6 8h1V7H6v1z"/>
  <path fill="#F0D6B3" d="M10 9h1v1H9V9h1zm3 7h1v-1h-1v1zm-7-1v1h1v-1H6zm9 19v2h1v-2h-1zM4 35v1h1v-2H4v1zm5-16v1h2v-1H9zm0-1v-2H7v1h1v1h1zm2-2v2h1v-1h1v-1h-2zm-3-1h4v-1h1v-1h-1v-1h-1v2H9v-2H8v1H7v1h1v1zm3-3v-1H9v1h2zM9 7h1V6H9V5H8v1H7v1h2z"/>
  <path fill="#fff" d="M17 54v1h-5v-1h5zM6 54H3v1h5v-1H6zm3-39v1h2v-1H9zm5-3v-2h-2v2h2zm-8-2v2h2v-2H6z"/>
  <path fill="#5A4327" d="M14 16h1v1h-1v-1zm1-5v5h1v-5h-1zM4 12v4h1v-5H4v1zm11-3V8h-1v1h1zM4 9h1V8H4v1zm10-2h-3v1h3V7zM5 8h1V7H5v1zm5-2v1h1V6h-1zM6 7h1V6H6v1zm3-2v1h1V5H9zM7 6h1V5H7v1zm1-2v1h1V4H8z"/>
  <path fill="#6E5537" d="M17 5v11h-1V9h-1V8h-1V7h1V5h-1V3h-1V2h2v1h1v2h1zM7 4H6v1H5v1H4v1H3v7H2v2h1v1h2v-1H4V8h1V7h1V6h1V5h1V3H7v1zM6 2v1h1V2H6zm6-1v1h1V1h-1z"/>
  <path fill="#8D693E" d="M17 34v2h-1v-2h1zM3 35v1h1v-2H3v1zM1 15h1v-1H1v1zm2-2H2v1h1v-1zm11-9V3h-1V2h-1V1H7v2h1v1h1v1h1v1h1v1h4V5h-1V4zM6 2H5v1H4v2H3v2h1V6h1V5h1V4h1V3H6V2z"/>
  <path fill="#000" d="M7 19v-1h2v1H8v1H5v-1h2zm10 36h-5V40h-1v16h7v-2h-1v1zm-1-2v-2h-1v3h2v-1h-1zM5 54v-3H4v2H3v1h2zm1-4V26H5v10H3v1h2v14h1v-1zm9-1V37h2v-1h-2V26h-1v25h1v-2zm-7-8v14H3v-1H2v2h7V40H8v1zm2-2H9v1h2v-1h-1zm6-15v10h1V22h-1v2zM3 23v11h1V22H3v1zm11-2v1h2v-2h-1v1h-1zM4 21v1h2v-1H5v-1H4v1zm7-3v1h1v1h3v-1h-2v-1h-2zm2-1v1h2v-1h-2zm-9 1h3v-1H6v-1H5v1H3v1h1zm11-2v1h2v-1h-2zM3 17v-1H2v1h1zm-1-1v-1H1v1h1zm-2-1h1v-1H0v1zm1-1h1v-1H1v1zm16-9v11h1V5h-1zM2 6v7h1V5H2v1zm15-3h-1v2h1V3zM3 4v1h1V3H3v1zm12-2v1h1V2h-1zM4 3h1V2H4v1zm10-2h-1v1h2V1h-1zM5 1v1h2V1H5zm7-1H7v1h6V0h-1z"/>
</svg>
